<svg width="174" height="39" viewBox="0 0 174 39" fill="none" xmlns="http://www.w3.org/2000/svg">
<path d="M0.875 30V0.90909H21.8409V7.27273H8.77273V12.2727H20.7614V18.6364H8.77273V23.6364H21.7841V30H0.875ZM30.6442 38.1818C29.7446 38.1818 28.8875 38.1108 28.0732 37.9688C27.2588 37.8362 26.5438 37.6515 25.9283 37.4148L27.6328 31.8466C28.2768 32.0739 28.8639 32.2206 29.3942 32.2869C29.9339 32.3532 30.3932 32.3153 30.772 32.1733C31.1603 32.0313 31.4396 31.7614 31.6101 31.3636L31.7805 30.9659L24.1101 8.18182H32.2919L35.8146 23.2955H36.0419L39.6214 8.18182H47.8601L39.9055 31.8182C39.5078 33.0208 38.9302 34.1004 38.1726 35.0568C37.4245 36.0227 36.4396 36.785 35.218 37.3438C33.9964 37.9025 32.4718 38.1818 30.6442 38.1818ZM59.8807 30.3977C57.5511 30.3977 55.5436 29.9527 53.858 29.0625C52.1818 28.1629 50.8892 26.875 49.9801 25.1989C49.0805 23.5133 48.6307 21.4962 48.6307 19.1477C48.6307 16.8939 49.0852 14.9242 49.9943 13.2386C50.9034 11.553 52.1866 10.2415 53.8438 9.30398C55.5009 8.36648 57.4564 7.89773 59.7102 7.89773C61.358 7.89773 62.8494 8.15341 64.1847 8.66477C65.5199 9.17614 66.661 9.91951 67.608 10.8949C68.5549 11.8608 69.2841 13.035 69.7955 14.4176C70.3068 15.8002 70.5625 17.358 70.5625 19.0909V20.9091H51.0739V16.5909H63.3466C63.3371 15.9659 63.1761 15.4167 62.8636 14.9432C62.5606 14.4602 62.1487 14.0862 61.6278 13.821C61.1165 13.5464 60.5341 13.4091 59.8807 13.4091C59.2462 13.4091 58.6638 13.5464 58.1335 13.821C57.6032 14.0862 57.1771 14.4555 56.8551 14.929C56.5426 15.4025 56.3769 15.9564 56.358 16.5909V21.25C56.358 21.9508 56.5047 22.5758 56.7983 23.125C57.0919 23.6742 57.5133 24.1051 58.0625 24.4176C58.6117 24.7301 59.2746 24.8864 60.0511 24.8864C60.5909 24.8864 61.0833 24.8106 61.5284 24.6591C61.983 24.5076 62.3712 24.2898 62.6932 24.0057C63.0152 23.7121 63.2519 23.3617 63.4034 22.9545H70.5625C70.3163 24.4697 69.7339 25.786 68.8153 26.9034C67.8968 28.0114 66.6799 28.8731 65.1648 29.4886C63.6591 30.0947 61.8977 30.3977 59.8807 30.3977ZM108.776 11.8182H100.765C100.708 11.1553 100.557 10.554 100.31 10.0142C100.074 9.47443 99.7422 9.01042 99.3161 8.62216C98.8994 8.22443 98.3928 7.9214 97.7962 7.71307C97.1996 7.49526 96.5225 7.38636 95.7649 7.38636C94.4392 7.38636 93.317 7.70833 92.3984 8.35227C91.4893 8.99621 90.7981 9.91951 90.3246 11.1222C89.8606 12.3248 89.6286 13.7689 89.6286 15.4545C89.6286 17.2348 89.8653 18.7263 90.3388 19.929C90.8217 21.1222 91.5178 22.0218 92.4268 22.6278C93.3359 23.2244 94.4297 23.5227 95.7081 23.5227C96.4373 23.5227 97.0907 23.4328 97.6683 23.2528C98.246 23.0634 98.7479 22.7936 99.174 22.4432C99.6001 22.0928 99.9458 21.6714 100.211 21.179C100.486 20.6771 100.67 20.1136 100.765 19.4886L108.776 19.5455C108.682 20.7765 108.336 22.0312 107.739 23.3097C107.143 24.5786 106.295 25.7528 105.197 26.8324C104.108 27.9025 102.758 28.7642 101.148 29.4176C99.5386 30.071 97.6683 30.3977 95.5376 30.3977C92.8672 30.3977 90.4714 29.8248 88.3501 28.679C86.2384 27.5331 84.567 25.8475 83.3359 23.6222C82.1143 21.3968 81.5036 18.6742 81.5036 15.4545C81.5036 12.2159 82.1286 9.48864 83.3786 7.27273C84.6286 5.04735 86.3142 3.36648 88.4354 2.23011C90.5566 1.08428 92.924 0.511363 95.5376 0.511363C97.3748 0.511363 99.0651 0.762309 100.609 1.2642C102.152 1.7661 103.506 2.5 104.671 3.46591C105.836 4.42235 106.773 5.60133 107.484 7.00284C108.194 8.40436 108.625 10.0095 108.776 11.8182ZM118.553 30.3409C117.161 30.3409 115.929 30.1136 114.859 29.6591C113.799 29.1951 112.965 28.4943 112.359 27.5568C111.753 26.6193 111.45 25.4261 111.45 23.9773C111.45 22.7841 111.654 21.7661 112.061 20.9233C112.468 20.071 113.036 19.375 113.766 18.8352C114.495 18.2955 115.342 17.8835 116.308 17.5994C117.284 17.3153 118.335 17.1307 119.462 17.0455C120.683 16.9508 121.663 16.8371 122.402 16.7045C123.15 16.5625 123.69 16.3684 124.021 16.1222C124.353 15.8665 124.518 15.5303 124.518 15.1136V15.0568C124.518 14.4886 124.301 14.053 123.865 13.75C123.429 13.447 122.871 13.2955 122.189 13.2955C121.441 13.2955 120.83 13.4612 120.357 13.7926C119.893 14.1146 119.613 14.6117 119.518 15.2841H112.303C112.397 13.9583 112.819 12.7367 113.567 11.6193C114.324 10.4924 115.428 9.5928 116.876 8.92045C118.325 8.23864 120.134 7.89773 122.303 7.89773C123.865 7.89773 125.267 8.08239 126.507 8.4517C127.748 8.81155 128.804 9.31818 129.675 9.97159C130.546 10.6155 131.209 11.3731 131.663 12.2443C132.127 13.1061 132.359 14.0436 132.359 15.0568V30H125.03V26.9318H124.859C124.424 27.7462 123.893 28.4044 123.268 28.9062C122.653 29.4081 121.947 29.7727 121.152 30C120.366 30.2273 119.5 30.3409 118.553 30.3409ZM121.109 25.3977C121.706 25.3977 122.265 25.2746 122.786 25.0284C123.316 24.7822 123.747 24.4271 124.078 23.9631C124.41 23.4991 124.575 22.9356 124.575 22.2727V20.4545C124.367 20.5398 124.144 20.6203 123.908 20.696C123.68 20.7718 123.434 20.8428 123.169 20.9091C122.913 20.9754 122.639 21.0369 122.345 21.0938C122.061 21.1506 121.763 21.2027 121.45 21.25C120.844 21.3447 120.347 21.5009 119.959 21.7188C119.58 21.9271 119.296 22.1875 119.107 22.5C118.927 22.803 118.837 23.1439 118.837 23.5227C118.837 24.1288 119.05 24.5928 119.476 24.9148C119.902 25.2367 120.446 25.3977 121.109 25.3977ZM136.106 30V8.18182H143.719V12.3295H143.947C144.344 10.7955 144.974 9.6733 145.836 8.96307C146.707 8.25284 147.725 7.89773 148.89 7.89773C149.231 7.89773 149.567 7.92614 149.898 7.98295C150.239 8.0303 150.566 8.10133 150.879 8.19602V14.8864C150.49 14.7538 150.012 14.6544 149.444 14.5881C148.876 14.5218 148.388 14.4886 147.981 14.4886C147.214 14.4886 146.522 14.6638 145.907 15.0142C145.301 15.3551 144.823 15.8381 144.472 16.4631C144.122 17.0786 143.947 17.803 143.947 18.6364V30H136.106ZM162.654 30.3977C160.325 30.3977 158.317 29.9527 156.631 29.0625C154.955 28.1629 153.663 26.875 152.754 25.1989C151.854 23.5133 151.404 21.4962 151.404 19.1477C151.404 16.8939 151.859 14.9242 152.768 13.2386C153.677 11.553 154.96 10.2415 156.617 9.30398C158.274 8.36648 160.23 7.89773 162.484 7.89773C164.131 7.89773 165.623 8.15341 166.958 8.66477C168.293 9.17614 169.434 9.91951 170.381 10.8949C171.328 11.8608 172.058 13.035 172.569 14.4176C173.08 15.8002 173.336 17.358 173.336 19.0909V20.9091H153.847V16.5909H166.12C166.111 15.9659 165.95 15.4167 165.637 14.9432C165.334 14.4602 164.922 14.0862 164.401 13.821C163.89 13.5464 163.308 13.4091 162.654 13.4091C162.02 13.4091 161.437 13.5464 160.907 13.821C160.377 14.0862 159.951 14.4555 159.629 14.929C159.316 15.4025 159.15 15.9564 159.131 16.5909V21.25C159.131 21.9508 159.278 22.5758 159.572 23.125C159.865 23.6742 160.287 24.1051 160.836 24.4176C161.385 24.7301 162.048 24.8864 162.825 24.8864C163.364 24.8864 163.857 24.8106 164.302 24.6591C164.756 24.5076 165.145 24.2898 165.467 24.0057C165.789 23.7121 166.025 23.3617 166.177 22.9545H173.336C173.09 24.4697 172.507 25.786 171.589 26.9034C170.67 28.0114 169.453 28.8731 167.938 29.4886C166.433 30.0947 164.671 30.3977 162.654 30.3977Z" fill="#006EFF"/>
</svg>
